<?xml version="1.0" encoding="utf-8"?>
<!-- Generator: Adobe Illustrator 16.0.0, SVG Export Plug-In . SVG Version: 6.00 Build 0)  -->
<!DOCTYPE svg PUBLIC "-//W3C//DTD SVG 1.1//EN" "http://www.w3.org/Graphics/SVG/1.1/DTD/svg11.dtd">
<svg version="1.1" id="ﾃ神xA1_ﾃ神xBB_ﾃ神xBE_ﾃ神xB9__x5F_1"
	 xmlns="http://www.w3.org/2000/svg" xmlns:xlink="http://www.w3.org/1999/xlink" x="0px" y="0px" width="48px" height="48px"
	 viewBox="0 0 48 48" enable-background="new 0 0 48 48" xml:space="preserve">
<g>
	<path fill="#BCAAA4" d="M29.253,16.513c-0.116-0.189-1.149-1.898-1.149-3.528c0-0.979,0.375-1.585,0.649-2.026
		c0.218-0.352,0.351-0.563,0.351-0.974c0-0.898-0.613-2.09-0.852-2.474l-0.283-0.458L29.665,6l0.287,0.456
		c0.116,0.189,1.149,1.898,1.149,3.528c0,0.98-0.375,1.586-0.649,2.028c-0.218,0.351-0.351,0.563-0.351,0.972
		c0,0.898,0.613,2.09,0.852,2.474L29.253,16.513z"/>
	<path fill="#BCAAA4" d="M24.269,16.513c-0.117-0.189-1.15-1.898-1.15-3.528c0-0.979,0.376-1.585,0.65-2.026
		c0.218-0.352,0.35-0.563,0.35-0.974c0-0.898-0.613-2.09-0.851-2.474l-0.283-0.458L24.682,6l0.286,0.456
		c0.117,0.189,1.15,1.898,1.15,3.528c0,0.98-0.376,1.586-0.65,2.028c-0.218,0.351-0.35,0.563-0.35,0.972
		c0,0.898,0.612,2.09,0.851,2.474L24.269,16.513z"/>
	<path fill="#BCAAA4" d="M19.284,16.513c-0.117-0.189-1.15-1.898-1.15-3.528c0-0.979,0.376-1.585,0.65-2.026
		c0.218-0.352,0.35-0.563,0.35-0.974c0-0.898-0.613-2.09-0.851-2.474L18,7.053L19.696,6l0.287,0.456
		c0.117,0.189,1.15,1.898,1.15,3.528c0,0.98-0.376,1.586-0.65,2.028c-0.218,0.351-0.35,0.563-0.35,0.972
		c0,0.898,0.613,2.09,0.851,2.474L19.284,16.513z"/>
</g>
<g>
	<path fill="none" stroke="#393D44" stroke-width="2" stroke-linecap="round" d="M30,33.001c0,0,7.74-4.721,10.5-7.293
		C44.479,22,43,20,41.084,19.208C38.777,18.256,36.063,21.311,34,23"/>
	<path fill="#393D44" d="M17.777,37h12.446c7-4.583,7.776-22,7.776-22H10C10,15,11.556,32.417,17.777,37z"/>
</g>
<path fill="#24262B" d="M4.3,36c1.59,2.836,9.792,6,19.7,6s18.109-3.164,19.7-6H4.3z"/>
</svg>
