<svg version="1.1" id="Слой_1" xmlns="http://www.w3.org/2000/svg" xmlns:xlink="http://www.w3.org/1999/xlink" x="0px" y="0px" width="48px" height="48px" viewBox="0 0 48 48" enable-background="new 0 0 48 48" xml:space="preserve">
<g>
	<path fill="#37474F" d="M40,35H8V22c0-8.436,6.898-13,15.407-13h1.185C33.102,9,40,13.564,40,22V35z"></path>
	<path fill="#37474F" d="M44,28c-2,0-11,5-20,5S6,28,4,28s-2,2-2,2s0,8,9,8c7,0,4,0,13,0s7,0,14,0c8,0,8-8,8-8S46,28,44,28z"></path>
</g>
<path fill="#78909C" d="M24,33c6.043,0,12.076-2.251,16-3.732V27H8v2.268C11.924,30.749,17.957,33,24,33z"></path>
</svg>