<?xml version="1.0" encoding="utf-8"?>
<!-- Generator: Adobe Illustrator 16.0.0, SVG Export Plug-In . SVG Version: 6.00 Build 0)  -->
<!DOCTYPE svg PUBLIC "-//W3C//DTD SVG 1.1//EN" "http://www.w3.org/Graphics/SVG/1.1/DTD/svg11.dtd">
<svg version="1.1" id="ﾃ神xA1_ﾃ神xBB_ﾃ神xBE_ﾃ神xB9__x5F_1"
	 xmlns="http://www.w3.org/2000/svg" xmlns:xlink="http://www.w3.org/1999/xlink" x="0px" y="0px" width="48px" height="48px"
	 viewBox="0 0 48 48" enable-background="new 0 0 48 48" xml:space="preserve">
<path fill="#BFD0E0" d="M39,10.742l-15,5.903L9,10.742c0,0-3,0.979-3,4.25l15.563,25.542c2.813,1.083,4.771-0.063,4.771-0.063
	L42,14.992C42,11.721,39,10.742,39,10.742z"/>
<path fill="#346DD1" d="M20.988,18.901L7.972,13.839c0,0-1.972-0.995-1.972,1.189c0,4.964,0,14.439,0,15.977
	c0,2.099,1.995,2.882,1.995,2.882l12.981,6.438c0,0,2.023,1.094,2.023-1.66c0-2.047,0-13.784,0-16.646
	C23,19.5,20.988,18.901,20.988,18.901z"/>
<path fill="#2D5CA0" d="M27.012,18.827l13.018-5.063c0,0,1.972-0.995,1.972,1.189c0,4.964,0,14.439,0,15.977
	c0,2.1-1.995,2.883-1.995,2.883l-12.98,6.437c0,0-2.023,1.094-2.023-1.66c0-2.047,0-13.784,0-16.646
	C25,19.426,27.012,18.827,27.012,18.827z"/>
<path fill="#4795F4" d="M38.971,10.729c-4.189-1.807-11.48-4.801-12.984-5.376C25.271,5.079,24.596,4.997,24,5V4.999
	c-0.595-0.003-1.271,0.079-1.987,0.353C20.51,5.927,13.219,8.921,9.03,10.729c-1.885,0.813,0.031,1.39,0.031,1.39l12.924,5.026
	c0,0,0.792,0.396,2.015,0.385v0.001c1.223,0.012,2.016-0.385,2.016-0.385l12.924-5.026C38.938,12.119,40.854,11.543,38.971,10.729z"
	/>
<g>
	<ellipse fill="#FFFFFF" cx="24" cy="11" rx="3" ry="1.5"/>
	<path fill="#FFFFFF" d="M8.5,28.336c0.608-1.029,1.851-1.12,2.77-0.202c0.922,0.918,1.175,2.498,0.564,3.53
		c-0.609,1.029-1.851,1.12-2.771,0.202C8.141,30.945,7.89,29.368,8.5,28.336z"/>
	<path fill="#FFFFFF" d="M12.834,24.587c0.608-1.03,1.851-1.12,2.77-0.202c0.922,0.918,1.175,2.498,0.564,3.53
		c-0.609,1.03-1.851,1.12-2.771,0.202C12.475,27.197,12.224,25.619,12.834,24.587z"/>
	<path fill="#FFFFFF" d="M17.333,20.836c0.608-1.03,1.851-1.12,2.77-0.202c0.922,0.918,1.175,2.498,0.564,3.53
		c-0.609,1.029-1.851,1.12-2.771,0.202C16.974,23.446,16.723,21.868,17.333,20.836z"/>
	<path fill="#FFFFFF" d="M39.043,26.878c-0.607-1.03-1.852-1.12-2.77-0.202c-0.922,0.918-1.176,2.498-0.564,3.53
		c0.609,1.03,1.852,1.12,2.771,0.202C39.402,29.488,39.652,27.91,39.043,26.878z"/>
	<path fill="#FFFFFF" d="M33.626,22.046c-0.608-1.03-1.851-1.12-2.771-0.202c-0.922,0.918-1.174,2.498-0.563,3.53
		c0.608,1.03,1.851,1.12,2.771,0.202C33.984,24.656,34.236,23.078,33.626,22.046z"/>
</g>
</svg>
