<svg version="1.1" id="Слой_1" xmlns="http://www.w3.org/2000/svg" xmlns:xlink="http://www.w3.org/1999/xlink" x="0px" y="0px" width="48px" height="48px" viewBox="0 0 48 48" enable-background="new 0 0 48 48" xml:space="preserve">
<g>
	<path fill="#8D6E63" d="M28,25c-1-4-2-7-2-15h-4c0,8-1,11-2,15s-3,8-3,8h4c0,0,2-6,2-9h2c0,3,2,9,2,9h4C31,33,29,29,28,25z"></path>
	<path fill="#8D6E63" d="M32,34H16l-6,11h5c3-6,4.582-8,9-8s6,2,9,8h5L32,34z"></path>
</g>
<g>
	<polygon fill="#795548" points="23,24 24,10 25,24 	"></polygon>
	<polygon fill="#795548" points="32,34 16,34 14.363,37 33.637,37 	"></polygon>
	<path fill="#795548" d="M26,10c0,0.553-0.447,1-1,1h-2c-0.553,0-1-0.447-1-1V8c0-0.553,0.447-1,1-1h2c0.553,0,1,0.447,1,1V10z"></path>
</g>
<g>
	<path fill="#5D4037" d="M27,11c0,0.553-0.447,1-1,1h-4c-0.553,0-1-0.447-1-1v-1c0-0.553,0.447-1,1-1h4c0.553,0,1,0.447,1,1V11z"></path>
	<path fill="#5D4037" d="M29,24c0,0.553-0.447,1-1,1h-8c-0.553,0-1-0.447-1-1l0,0c0-0.553,0.447-1,1-1h8C28.553,23,29,23.447,29,24
		L29,24z"></path>
	<path fill="#5D4037" d="M33,33c0,0.553-0.447,1-1,1H16c-0.553,0-1-0.447-1-1l0,0c0-0.553,0.447-1,1-1h16C32.553,32,33,32.447,33,33
		L33,33z"></path>
	<polygon fill="#5D4037" points="24,3 23,7 25,7 	"></polygon>
</g>
</svg>