<?xml version="1.0" encoding="utf-8"?>
<!-- Generator: Adobe Illustrator 16.0.0, SVG Export Plug-In . SVG Version: 6.00 Build 0)  -->
<!DOCTYPE svg PUBLIC "-//W3C//DTD SVG 1.1//EN" "http://www.w3.org/Graphics/SVG/1.1/DTD/svg11.dtd">
<svg version="1.1" id="ﾃ神xA1_ﾃ神xBB_ﾃ神xBE_ﾃ神xB9__x5F_1"
	 xmlns="http://www.w3.org/2000/svg" xmlns:xlink="http://www.w3.org/1999/xlink" x="0px" y="0px" width="48px" height="48px"
	 viewBox="0 0 48 48" enable-background="new 0 0 48 48" xml:space="preserve">
<g>
	<path fill="#455A64" d="M40,29H7.98v-2H40V29z"/>
	
		<rect x="35.144" y="37.765" transform="matrix(0.9111 -0.4121 0.4121 0.9111 -13.1753 18.4288)" fill="#455A64" width="2" height="3.999"/>
	<rect x="22" y="3" fill="#455A64" width="4" height="7"/>
	
		<rect x="10.865" y="37.766" transform="matrix(-0.9111 -0.4121 0.4121 -0.9111 6.2873 80.887)" fill="#455A64" width="2" height="4"/>
</g>
<g>
	<circle fill="#1B63B2" cx="40" cy="28" r="2"/>
	<circle fill="#1B63B2" cx="8" cy="28" r="2"/>
</g>
<g>
	<path fill="#B0BEC5" d="M28.875,16.735c-0.918,0.98-2.16,1.65-3.557,1.841l9.223,20.081l1.825-0.831l0.253-4.307L28.875,16.735z"/>
	<path fill="#B0BEC5" d="M19.135,16.735c0.918,0.98,2.16,1.65,3.557,1.841l-9.223,20.081l-1.825-0.831l-0.253-4.307L19.135,16.735z"
		/>
</g>
<g>
	<path fill="#78909C" d="M24,8c-3.313,0-6,2.687-6,6s2.687,6,6,6c3.313,0,6-2.687,6-6S27.313,8,24,8z M24,17c-1.656,0-3-1.344-3-3
		s1.344-3,3-3c1.656,0,3,1.344,3,3S25.656,17,24,17z"/>
	<rect x="22" y="25" fill="#78909C" width="4" height="6"/>
</g>
</svg>
