<?xml version="1.0" encoding="utf-8"?>
<!-- Generator: Adobe Illustrator 16.0.0, SVG Export Plug-In . SVG Version: 6.00 Build 0)  -->
<!DOCTYPE svg PUBLIC "-//W3C//DTD SVG 1.1//EN" "http://www.w3.org/Graphics/SVG/1.1/DTD/svg11.dtd">
<svg version="1.1" id="ﾃ神xA1_ﾃ神xBB_ﾃ神xBE_ﾃ神xB9__x5F_1"
	 xmlns="http://www.w3.org/2000/svg" xmlns:xlink="http://www.w3.org/1999/xlink" x="0px" y="0px" width="48px" height="48px"
	 viewBox="0 0 48 48" enable-background="new 0 0 48 48" xml:space="preserve">
<g>
	
		<ellipse transform="matrix(0.7071 -0.7071 0.7071 0.7071 -10.2948 23.8532)" fill="#1A3A56" cx="23.646" cy="24.353" rx="15.5" ry="11"/>
	<g>
		<path fill="#174A82" d="M4.201,32.484C3.6,28.934,4.465,25.198,5.938,21.869c0.729-1.685,1.641-3.282,2.658-4.812
			c0.51-0.765,1.047-1.512,1.621-2.242c0.293-0.367,0.57-0.719,0.923-1.099c0.295-0.327,0.601-0.658,0.935-1.002
			c2.586-2.634,5.637-5.012,9.393-6.38c3.718-1.418,8.271-1.286,12.021,0.641c0.957,0.494,1.8,0.998,2.74,1.818
			c0.847,0.795,1.521,1.589,2.139,2.571c1.244,1.92,1.764,4.437,1.509,6.693c-0.239,2.274-1.065,4.282-2.058,6.049
			c-1,1.772-2.191,3.335-3.459,4.783c-0.316,0.361-0.641,0.715-0.967,1.063l-0.537,0.551c-0.182,0.181-0.363,0.349-0.547,0.517
			c-0.734,0.662-1.494,1.287-2.32,1.883c-0.827,0.594-1.709,1.158-2.754,1.647c-1.053,0.461-2.267,0.961-4.029,0.857
			c-0.867-0.06-1.882-0.377-2.691-0.957c-0.202-0.142-0.394-0.296-0.565-0.457l-0.13-0.122c-0.112-0.11-0.169-0.178-0.217-0.23
			c-0.096-0.113-0.171-0.209-0.242-0.306c-0.277-0.376-0.479-0.735-0.651-1.112c-0.688-1.505-0.708-3.156-0.389-4.494
			c0.676-2.694,2.213-4.437,3.579-5.867c1.074-1.056,1.855-2.228,2.006-2.991c0.081-0.369,0.031-0.575-0.017-0.684
			c-0.007-0.021-0.031-0.051,0.008-0.001c0.025,0.026-0.002,0.01,0.18,0.188l-0.105-0.098c0.03,0.032,0.064,0.061,0.101,0.085
			c0.01,0.01,0.021,0.018,0.033,0.023c0.101,0.067,0.231,0.085,0.198,0.073c-0.057-0.031-0.604,0.063-1.166,0.333
			c-0.576,0.261-1.211,0.644-1.834,1.081c-0.624,0.438-1.248,0.936-1.839,1.455c-0.566,0.499-1.131,1.066-1.701,1.664
			c-2.222,2.339-4.103,5.074-4.447,7.634c-0.175,1.269,0.051,2.42,0.66,3.551c0.151,0.283,0.331,0.562,0.534,0.835
			c0.102,0.137,0.207,0.272,0.321,0.406l0.29,0.334c0.422,0.416,1.049,0.874,1.664,1.23c1.26,0.729,2.68,1.194,4.152,1.35
			c1.475,0.15,3.006,0,4.525-0.398c3.054-0.806,5.954-2.645,8.567-4.836c2.599-2.128,4.869-4.863,6.746-7.75
			c0.93-1.46,1.722-3.012,2.277-4.656c0.576-1.639,0.865-3.393,0.746-5.177c0.461,1.731,0.43,3.599,0.117,5.397
			c-0.329,1.802-0.943,3.545-1.703,5.213c-0.754,1.674-1.693,3.253-2.725,4.77c-0.516,0.758-1.059,1.498-1.631,2.224
			c-0.293,0.366-0.572,0.715-0.91,1.09c-0.311,0.34-0.619,0.683-0.941,1.013c-2.572,2.635-5.615,5.025-9.359,6.418
			c-3.706,1.438-8.262,1.352-12.029-0.548c-0.953-0.479-1.825-1.002-2.733-1.769l-0.213-0.194l-0.144-0.14l-0.284-0.285
			c-0.188-0.193-0.371-0.396-0.55-0.604c-0.356-0.418-0.694-0.865-0.999-1.346c-1.259-1.904-1.821-4.414-1.588-6.682
			c0.214-2.283,1.028-4.307,2.011-6.081c0.993-1.781,2.18-3.353,3.443-4.804c0.632-0.713,1.284-1.446,2.044-2.134
			c0.73-0.67,1.484-1.3,2.304-1.9c0.821-0.599,1.695-1.17,2.729-1.67c1.038-0.475,2.228-0.98,3.96-0.938
			c0.854,0.027,1.87,0.293,2.719,0.847l0.309,0.212c0.123,0.095,0.243,0.193,0.359,0.295l0.141,0.128
			c0.266,0.253,0.307,0.323,0.402,0.436c0.315,0.397,0.525,0.75,0.711,1.129c0.738,1.499,0.799,3.165,0.5,4.526
			c-0.297,1.377-0.877,2.494-1.506,3.453c-0.629,0.955-1.352,1.785-2.057,2.494c-0.58,0.571-1.017,1.072-1.391,1.607
			c-0.364,0.521-0.604,1.029-0.697,1.408c-0.096,0.385-0.054,0.605-0.006,0.732c0.011,0.027,0.028,0.057,0.015,0.039l-0.036-0.043
			l-0.111-0.119l-0.049-0.035c-0.085-0.063-0.225-0.09-0.208-0.08c0.025,0.029,0.563-0.049,1.118-0.313
			c0.571-0.256,1.205-0.636,1.826-1.071c0.623-0.437,1.247-0.933,1.838-1.453l0.434-0.389l0.41-0.39l0.865-0.875
			c2.229-2.336,4.127-5.066,4.504-7.635c0.189-1.275-0.026-2.43-0.613-3.566c-0.283-0.553-0.734-1.154-1.151-1.609
			c-0.37-0.382-1.021-0.871-1.626-1.223c-1.254-0.74-2.673-1.22-4.145-1.383c-1.475-0.164-3.005-0.024-4.526,0.361
			c-3.057,0.784-5.967,2.622-8.581,4.797c-2.613,2.109-4.83,4.875-6.662,7.793C5.59,25.564,4.264,28.898,4.201,32.484z"/>
	</g>
</g>
<g>
	<g>
		<path fill="#5177AD" d="M23.892,26.26c1.819-1.359,3.674-3.058,5.096-4.819c1.436-1.743,2.465-3.822,2.158-5.192
			c-0.066-0.348-0.203-0.678-0.428-1.011c-0.107-0.165-0.248-0.332-0.396-0.49c-0.257-0.265-0.345-0.343-0.56-0.537
			c-0.758-0.65-1.58-1.076-2.488-1.229c-1.818-0.34-4.027,0.501-6.01,1.768c-1.998,1.255-3.891,2.96-5.675,4.631
			c-1.723,1.632-3.18,3.637-4.127,5.859c-0.95,2.217-1.345,4.703-0.888,7.133C11.014,34.807,12.297,37.093,14,39
			c-1.914-1.688-3.528-3.85-4.319-6.405c-0.809-2.546-0.719-5.375,0.044-7.967c0.76-2.606,2.094-5.018,3.845-7.136
			c1.784-1.986,3.643-3.807,5.878-5.435c1.119-0.798,2.334-1.53,3.717-2.065c1.373-0.529,2.957-0.856,4.597-0.672
			c1.641,0.166,3.213,0.881,4.444,1.831c0.28,0.212,0.676,0.552,0.873,0.738c0.31,0.289,0.603,0.597,0.871,0.948
			c0.541,0.689,0.978,1.533,1.211,2.429c0.481,1.821,0.142,3.605-0.396,5.047c-0.551,1.465-1.309,2.719-2.129,3.874
			c-1.68,2.311-3.527,4.204-5.699,6.038c-1.057,0.892-2.636,0.758-3.525-0.3c-0.892-1.056-0.757-2.635,0.299-3.524
			c0.036-0.03,0.072-0.061,0.109-0.088L23.892,26.26z"/>
	</g>
	<g>
		<path fill="#5177AD" d="M24.108,21.74c-1.819,1.359-3.674,3.058-5.097,4.818c-1.435,1.743-2.464,3.822-2.157,5.192
			c0.066,0.349,0.202,0.679,0.428,1.011c0.108,0.165,0.248,0.333,0.396,0.49c0.257,0.266,0.345,0.343,0.561,0.537
			c0.756,0.65,1.58,1.076,2.487,1.23c1.818,0.338,4.027-0.502,6.01-1.77c1.998-1.255,3.891-2.961,5.675-4.631
			c1.723-1.633,3.18-3.639,4.127-5.859c0.95-2.217,1.345-4.703,0.888-7.133C36.986,13.194,35.703,10.907,34,9
			c1.914,1.688,3.527,3.849,4.318,6.405c0.81,2.546,0.72,5.374-0.043,7.967c-0.76,2.606-2.094,5.019-3.846,7.136
			c-1.783,1.986-3.643,3.807-5.878,5.436c-1.118,0.798-2.334,1.529-3.717,2.064c-1.373,0.529-2.957,0.856-4.597,0.672
			c-1.639-0.166-3.211-0.881-4.444-1.83c-0.279-0.213-0.676-0.553-0.873-0.738c-0.31-0.288-0.602-0.598-0.87-0.948
			c-0.542-0.688-0.978-1.533-1.212-2.429c-0.48-1.821-0.142-3.604,0.396-5.047c0.549-1.465,1.308-2.72,2.128-3.874
			c1.679-2.311,3.526-4.205,5.699-6.038c1.056-0.892,2.635-0.758,3.525,0.299c0.892,1.056,0.757,2.635-0.299,3.525
			c-0.036,0.03-0.072,0.06-0.109,0.088L24.108,21.74z"/>
	</g>
</g>
<g>
	<circle fill="#EDE7F6" cx="23" cy="17" r="1"/>
	<circle fill="#EDE7F6" cx="23.549" cy="22.451" r="1.5"/>
	<circle fill="#EDE7F6" cx="19.049" cy="26.951" r="1"/>
	<circle fill="#EDE7F6" cx="15.5" cy="18.5" r="0.5"/>
	<circle fill="#EDE7F6" cx="30.549" cy="14.451" r="1.5"/>
	<circle fill="#EDE7F6" cx="17.549" cy="32.451" r="0.5"/>
	<circle fill="#EDE7F6" cx="26.549" cy="29.451" r="1.5"/>
</g>
</svg>
