<?xml version="1.0" encoding="utf-8"?>
<!-- Generator: Adobe Illustrator 16.0.0, SVG Export Plug-In . SVG Version: 6.00 Build 0)  -->
<!DOCTYPE svg PUBLIC "-//W3C//DTD SVG 1.1//EN" "http://www.w3.org/Graphics/SVG/1.1/DTD/svg11.dtd">
<svg version="1.1" id="Layer_1" xmlns="http://www.w3.org/2000/svg" xmlns:xlink="http://www.w3.org/1999/xlink" x="0px" y="0px"
	 width="1012.594px" height="1319.193px" viewBox="-0.001 -0.581 1012.594 1319.193"
	 enable-background="new -0.001 -0.581 1012.594 1319.193" xml:space="preserve">
<g id="Layer_1_1_" display="none">
</g>
<g id="Layer_13" display="none">
</g>
<g id="chemise">
</g>
<g id="Tête">
	<g id="cou">
	</g>
	<g id="cheveux">
	</g>
	<g id="oreilles">
	</g>
	<g id="face">
	</g>
	<g id="bouc_copy">
	</g>
	<g id="yeux">
	</g>
	<g id="sourcils">
	</g>
	<g id="nez">
	</g>
	<g id="moustache">
	</g>
	<g id="Bouche_copy">
	</g>
	<g id="Bouche" display="none">
		<path display="inline" fill="#875A52" d="M-686.38,725.025c2.082-0.803,29.782-3.333,36.028-3.841
			c6.246-0.507,11.439,3.604,13.521,3.483c2.082-0.119,6.177-3.293,14.504-2.225c8.328,1.066,31.959,1.533,33.832,2.067
			c1.874,0.534-1.6,3.647-5.034,6.741c-2.914,2.623-15.36,9.94-26.091,12.547c-10.025,2.436-11.158-0.528-16.896-0.528
			c-5.737,0-12.677,0.479-21.204-0.095c-10.757-0.724-22.276-11.79-24.358-13.124C-684.16,728.719-686.38,725.025-686.38,725.025z"
			/>
		<path display="inline" fill="#5D483B" d="M-667.92,732.188c8.188,1.666,19.816,2.889,31.924,2.895
			c7.223,0.003,14.354-1.66,20.681-2.131c16.935-1.26,27.07-7.926,27.07-7.926s-17.268,4.19-32.256,4.19
			c-3.935,0-10.344,2.474-16.014,2.571c-15.977,0.278-29.823-1.865-34.528-3.858c-5.39-2.281-14.921-2.903-14.921-2.903
			S-676.11,730.522-667.92,732.188z"/>
	</g>
	<g id="reflet">
	</g>
</g>
<g id="lunettes">
</g>
<g id="costume">
	<path fill="#111111" d="M936.918,739.768c-11.845-6.154-95.313-42.175-145.703-62.488c-54.615-22.019-110.31-50.046-110.31-50.046
		s-26.5-17.75-37.5-32.25s-34.298-36.75-34.298-36.75l-239.369-12.595c0,0-6.332,0.141-16.832,25.808
		c-10.524,25.729-33.299,44.288-33.299,44.288s-45.402,37.379-82.902,52.879S75.52,742.539,55.963,753.075
		c-19.558,10.536-39.071,223.009-55.558,331.537c-12,79,243.897,233.771,495.138,234c228.862,0.205,525.567-158.73,516.862-228.924
		C995.406,952.612,970.828,743.367,936.918,739.768z"/>
	<path fill="#E8E3E2" d="M360.676,599.972c0,0-46.478,111.979,28.52,341.466c74.997,229.488,105.599,409.48,105.599,409.48
		S649.073,823.6,639.948,742.182s-15.726-151.336-15.726-151.336S548.164,728.147,493.485,730.03
		C396.656,733.361,360.676,599.972,360.676,599.972z"/>
	<path fill="#60564D" d="M450.289,742.495c0,0-48.669,60.675-52.419,59.913s-44.826-63.234-49.266-79.479
		c-4.438-16.243-1.241-48.987-1.241-48.987L450.289,742.495z"/>
	<path fill="#60564D" d="M572.739,795.778c0,0,57.17-146.397,57.512-143.512c2.905,24.595-1.063,45.056-5.504,58.254
		c-4.712,14.008-16.419,34.688-23.271,48.504c-12.787,25.779-27.424,53.35-28.976,52.613c-3.168-1.5-39.677-50.276-39.677-50.276
		l-7.085-19.916L572.739,795.778z"/>
	<path fill="#0B0C0C" d="M473.739,725.611c24.354,0,46.667,1,46.667,1l10.783,19.967l9.701,12.382c0,0-3.483,2.652-9.817,3.318
		s-13.334-1.668-15.334,17.666s-2,27.334-2,27.334l-2.167,2.167c0,0,17.834,16.166,25.167,72.833
		c7.333,56.668,9.002,114.668,11.668,186c2.666,71.334,0,466.801,0,549.334c0,30.941-60.216,82.799-60.216,82.799l-53.248-68.246
		c0,0-7.5-297.994-4.5-465.986c3-167.99,6.63-209.898,16.63-264.564c10-54.667,17.999-96.667,17.999-96.667
		s-8.667-20.667-16.667-26.667S428.782,765.9,428.782,765.9S456.406,725.611,473.739,725.611z"/>
	<path fill="#E8E3E2" d="M631.138,646.611c0.352-8.238-0.736-8.371-0.591-29.333c0.33-47.505-29.634-77.295-29.634-77.295
		l0.563,41.045c-5.271,35.665-16.237,86.79-42.069,105.228c-33.5,23.91-63.999,36.604-63.999,36.604l-8.501-0.929
		c0,0-41.291-19.914-73.619-38.248c-17.195-22.827-48.024-67.156-47.123-90.45c1.25-32.25,3.25-54.25,3.25-54.25
		s-21.75,25.25-19.75,73c0.052,1.201,0.104,2.394,0.156,3.583c-1.695,17.498-4.391,39.208-3.191,50.323
		c0.968,8.98-2.723,34.6,12.277,63.443s39.25,63.192,41.75,64.141c2.5,0.949,26-24.858,43.25-44.595c17.25-19.735,37-24.29,37-24.29
		s1,0.759,6.75,0.759s11.25,0.76,11.25,0.76s16,7.971,33.5,23.53c17.5,15.563,39.5,49.72,42.5,50.479c3,0.76,30-55.031,41.5-76.285
		S632.067,666.039,631.138,646.611z"/>
</g>
<g id="Layer_19">
	<path id="cheveux_1_" fill="#0B0C0C" d="M317.19,328.085c0,0-4.667-15.332-4-67.333c0.666-52,15.333-108,15.333-108h-12
		l6.667-6.667l-2.365-20l12.365,2.667c0,0,8.666-20.667,17.333-28c8.668-7.333,25.333-10.667,25.333-10.667
		s4.003-24.666,20.669-44.666c16.665-20,38.666-29.333,38.666-29.333l-3.334,10.667c0,0,16.668-5.333,34-8
		c17.334-2.667,17.334-2.667,17.334-2.667l42.666-16.667l-8,17.333l22-3.333l10.668,4.667c0,0,7.334,0,18,0s17.332,0,17.332,0
		s-9,2.333-16.666,10s-7.666,7.667-7.666,7.667s17,5,46.332,17c-9.332,2-9.332,2-9.332,2l16,5.333l-5.334,5.333c0,0,24,18,31,31
		c-7.668-7.667-17.666-11-17.666-11s13.998,14.667,24.666,24.667c10.666,10,9.334,14,16.666,29.333
		c7.334,15.333,7.334,15.333,7.334,15.333h-8c0,0,0.666,4.666,2.666,9c-8.666-3-8.666-3-8.666-3s5.332,7.167,10.666,14.833
		c-2.5,0.333-7.168,0.333-7.168,0.333s-3.666,8.167,1.834,27.333c-3.166,0.667-3.166-1-3.166-1s0.5,30.667,4,51.667s-3.5,39-3.5,39
		l-8.5,32.5c0,0-11.5,4-11.75,11.75s-6.75,14.25-6.75,14.25s4-22-1-51.5s-10.5-47.5-5-78s20-52-7.5-70.5s-58-37.5-82.5-42.5
		s-32,2-47,0.5s-25-13-54-5s-41.5,6.5-57,18.5s-46.5,38.5-42.5,86.5s8.5,73.5,4,87.5s-2,30.5-2,41.5s0,25.5,0,25.5s-5-25-9-30.5
		S317.19,328.085,317.19,328.085z"/>
	<g id="oreilles_1_">
		<g>
			<path fill="none" d="M317.19,328.085c2.044,0.503,3.813,0.743,5.358,0.824C319.661,328.041,317.19,328.085,317.19,328.085z"/>
			<path fill="#B08271" d="M329.356,333.419c-1.801-2.477-4.442-3.798-6.808-4.51c-1.545-0.081-3.314-0.321-5.358-0.824
				c-9.834-2.416-19.334-5.416-25.333,6.834c-6,12.25-7.25,23.75-6.75,35.25s14.749,37,22.499,52s17.5,23.25,25.5,26.5
				s13.5,5.25,18.75,1.25s6.5-12.25,6.5-12.25l-13.5-70.916l-6.5-18.417c0,8.216,0,15.583,0,15.583S333.356,338.919,329.356,333.419
				z"/>
		</g>
		<g>
			<path fill="#B08271" d="M681.356,331.919c-7-13.5-17.499-8.75-30.947-6.128c-2.753,1.153-10.597,4.991-10.803,11.378
				c-0.25,7.75-6.75,14.25-6.75,14.25s0.839-4.627,1.269-12.468l-8.269,15.468l-10.75,83.5c0,0,3.5,11,10.75,12.5
				s18-4.75,32.474-16.75c14.473-12,15.776-20,18.776-30.25s9.75-21.25,12.75-32.75S688.356,345.419,681.356,331.919z"/>
			<path fill="#333838" d="M640.766,326.523l0.591-1.104C641.356,325.419,640.367,326.095,640.766,326.523z"/>
		</g>
		<path fill="#7D5143" d="M640.671,356.919c0,0,3.685-20.25,16.935-22.75s17.25,0.441,21.75,12.971c4.5,12.53,5.25,16.279,2,26.529
			c0,0-2.75,4.75-7.25,16.75s-9.75,20.667-9.75,20.667s10.75-28.866,11.75-38.866s-2-26.301-8-28.301
			S656.238,336.419,640.671,356.919z"/>
		<path fill="#7D5143" d="M342.522,402.752c0,0-7.934-7.461-4.666-14c3.269-6.539,2.737-9.853,2.737-9.853l-4.591-11.146
			c0,0-12.333,2.48-11.74,11.74C324.856,388.752,336.856,402.752,342.522,402.752z"/>
		<path fill="#7D5143" d="M632.408,402.419c0,0,5.964-9.75,3.206-17.945c-1.932-5.736-5.657-9.878-5.657-9.878l5.657-10.677
			c0,0,12.841,0,12.453,12.955C647.836,384.671,641.242,393.586,632.408,402.419z"/>
		<path fill="#7D5143" d="M331.522,360.753c0,0-3.499-23.834-14.332-24.5c-10.834-0.667-13.834-2.668-18.667,1.666
			c-4.832,4.334-5.833,13.667-6.166,22.834c-0.333,9.166-0.334,13.166,3.5,22.5c3.834,9.333,12.834,27.5,12.834,27.5
			s-8.834-20-10-35c-1.168-15-0.835-24,2.332-28.5c3.168-4.5,10.166-5.5,14.834-3.5
			C320.523,345.753,323.689,345.586,331.522,360.753z"/>
	</g>
	<g id="visage">
		<g>
			<path fill="none" d="M493.443,723.249c0,0,0.757-0.341,2.157-1.006c-1.978,0.026-4.062,0.062-6.252,0.105L493.443,723.249z"/>
			<path fill="#9C7162" d="M364.063,592.652c-0.901,23.293,29.928,67.623,47.123,90.45c32.328,18.334,73.619,38.248,73.619,38.248
				l4.543,0.999c2.19-0.044,4.274-0.079,6.252-0.105c7.492-3.558,33.484-16.426,61.705-36.568
				c25.832-18.438,36.798-69.562,42.069-105.228l-0.563-41.045c0,0,0.134,0.142,0.363,0.398l-1.445-39.363l-229.208-11.02
				l-2.533,50.695c0.826-1.13,0.086-1.712,0.086-1.712S365.313,560.402,364.063,592.652z"/>
		</g>
		<path fill="#875A52" d="M367.305,501.78l-0.699,25.965c0,0,18.782,60.76,44.826,76.658c25.873,15.793,48.123,23.56,82.873,16.56
			s69.5-38.988,81.75-56.085s21.734-53.421,21.734-53.421L367.305,501.78z"/>
		<g>
			<g>
				<path fill="#B08271" d="M632.856,351.419c0,0,0.565-3.11,1.006-8.559C633.545,345.696,633.21,348.546,632.856,351.419z"/>
				<g>
					<path fill="#B08271" d="M631.522,299.835c-5-29.5-10.5-47.5-5-78s20-52-7.5-70.5s-58-37.5-82.5-42.5s-32,2-47,0.5s-25-13-54-5
						s-41.5,6.5-57,18.5s-46.5,38.5-42.5,86.5s8.5,73.5,4,87.5s-2,30.5-2,41.5s0,25.5,0,25.5c6.167,43.5,9.5,49.5,16.168,89.5
						c6.666,40,14.867,59.897,30.666,91c21.25,41.834,38.296,55.706,90.25,55.834c46.499,0.114,47.416-4.75,76.75-27.25
						c27.446-21.052,27-27.665,41.334-53.333c14.334-25.666,18.332-29.251,23.332-55.917c5-26.668,10.334-66.334,16-112.334
						c0.354-2.873,0.689-5.723,1.007-8.559C634.258,333.733,634.643,318.245,631.522,299.835z"/>
				</g>
			</g>
		</g>
	</g>
	<g id="yeux_1_">
		<path fill="#E8E3E2" d="M444.856,295.508c0,0-7.334-13.923-30-11.923c-22.665,2-32.666,18.834-32.666,18.834
			s8.832,10.25,27.332,8.084c18.5-2.167,36.959-5.709,38.793-7.709C450.148,300.794,447.856,298.508,444.856,295.508z"/>
		<g>
			<g>
				<g>
					<g>
						<path fill="#60564D" d="M400.347,287.872c-0.689,1.657-1.075,3.474-1.075,5.381c0,7.731,6.27,14,14,14c7.732,0,14-6.269,14-14
							c0-3.211-1.092-6.161-2.909-8.523C417.402,283.497,409.381,284.243,400.347,287.872z"/>
					</g>
				</g>
			</g>
			<circle fill="#1C2323" cx="413.94" cy="292.753" r="7.333"/>
			<circle fill="#B8CABD" cx="413.272" cy="289.836" r="3"/>
		</g>
		<path fill="#1C2323" d="M400.606,310.61c0,0-9.625-4.816-12-6.941s-2.375-2.125-2.375-2.125s-1.157-7.357,13.5-13.428
			c10.563-4.375,19.75-4.813,27.5-2.755s13.688,5.46,13.688,5.46s-8.771-8.828-19.646-9.193c-9.757-0.327-20.417,1.291-29.667,7.416
			s-14.625,15.75-14.625,15.75S381.731,309.985,400.606,310.61z"/>
		<path fill="#333838" d="M372.481,301.544c0,0,6.021-16.146,23.146-21.896s21.084-4.312,29.896-3.312
			c8.813,1,12.667,7.843,12.667,7.843s-7.424-5.76-20.668-5.76c-10.937,0-22.541,3.25-31.041,9.75S372.481,301.544,372.481,301.544z
			"/>
		<path fill="#E8E3E2" d="M529.856,295.508c0,0,7.334-13.923,30-11.923s32.666,18.834,32.666,18.834s-8.831,10.25-27.331,8.084
			c-18.5-2.167-36.959-5.709-38.793-7.709S526.856,298.508,529.856,295.508z"/>
		<g>
			<g>
				<g>
					<g>
						<path fill="#60564D" d="M574.365,287.872c0.689,1.657,1.075,3.474,1.075,5.381c0,7.731-6.27,14-14,14c-7.732,0-14-6.269-14-14
							c0-3.211,1.092-6.161,2.909-8.523C557.311,283.497,565.331,284.243,574.365,287.872z"/>
					</g>
				</g>
			</g>
			<circle fill="#1C2323" cx="560.773" cy="292.753" r="7.333"/>
			<circle fill="#B8CABD" cx="561.441" cy="289.836" r="3"/>
		</g>
		<path fill="#1C2323" d="M574.106,310.61c0,0,9.625-4.816,12-6.941s2.375-2.125,2.375-2.125s1.158-7.357-13.5-13.428
			c-10.562-4.375-19.75-4.813-27.5-2.755s-13.688,5.46-13.688,5.46s8.771-8.828,19.646-9.193c9.758-0.327,20.417,1.291,29.667,7.416
			s14.625,15.75,14.625,15.75S592.981,309.985,574.106,310.61z"/>
		<path fill="#333838" d="M602.231,301.544c0,0-6.021-16.146-23.146-21.896s-21.084-4.312-29.896-3.312
			c-8.812,1-12.667,7.843-12.667,7.843s7.425-5.76,20.669-5.76c10.937,0,22.541,3.25,31.041,9.75S602.231,301.544,602.231,301.544z"
			/>
	</g>
	<g id="nez_1_">
		<path fill="#333838" d="M497.641,415.866c0,0,7.771-9.479,13.623-9.558c5.854-0.078,6.034,1.725,3.555,3.74
			C512.338,412.063,510.068,411.116,497.641,415.866z"/>
		<path fill="#333838" d="M468.198,415.729c0,0-7.033-10.036-12.864-10.557c-5.832-0.519-6.147,1.266-3.825,3.462
			C453.83,410.831,456.165,410.057,468.198,415.729z"/>
		<path fill="#7D5143" d="M508.523,328.909c0,0,3.448,32.34,7.807,45.01c3.996,11.62,10.282,23.549,5.782,32.387
			c-4.5,8.838-10.5,12.457-4.5,10.647c6-1.81,18.66-6.034,16.91-20.784s-7.271-17-14.806-35.25
			C512.575,343.618,508.523,328.909,508.523,328.909z"/>
		<path fill="#BB8F7D" d="M484.53,381.748c14.076,0,18.853,10.88,16.283,15.648c-2.567,4.768-34.124,10.402-32.337,0
			S475.106,381.748,484.53,381.748z"/>
		<path fill="#7D5143" d="M451.856,415.729c0,0-10-1.642-8-14.976s8.113-40,8.113-40s-18.447,35.656-17.113,44.328
			S440.762,418.067,451.856,415.729z"/>
	</g>
	<g id="poils">
		<path fill="#1C2323" d="M457.523,493.419c0,0,1.667-4,19.667-4s29.796,4,29.796,4s-20.464,19-26.13,18
			C475.191,510.419,457.523,496.752,457.523,493.419z"/>
		<path fill="#111111" d="M479.023,524.419c14.333,0,7.784,30.591,28.666,31c4.918,0.097,24.099-3.86,28.334-2
			c5.923,2.601,9.082,25.408,4.795,29.151c-19.263,16.813-45.021,20.409-63.689,21.409c-18.666,1-50.131-5.562-63.104-16.229
			c-6.322-5.199,0.174-28.1,6.194-32.667c4.93-3.738,19.566,0.54,29.199-0.772C466.417,551.996,464.19,524.419,479.023,524.419z"/>
		<path fill="#1C2323" d="M454.627,275.039c4.417,0.333,3.292-3.495,1.917-6.308c-7.174-14.672-17.354-20.312-30.021-20.979
			c-12.666-0.667-43.375-3.959-55.041,3.375c-11.665,7.334-19.625,22.959-17.959,33.626c1.669,3.666,4.335-10.333,23-12.667
			C395.19,269.752,420.627,264.372,454.627,275.039z"/>
		<path fill="#1C2323" d="M526.689,250.586c7.98-8.742,52.167-9.167,64.167-6.833s19.001,12.962,24.667,22.148
			s6.332,19.736,3.666,19.461s-4.666-12.275-25.333-14.609s-66.665,1.666-72.333,3.666c-5.666,2-5,0-3.334-4.333
			C519.857,265.753,519.689,258.253,526.689,250.586z"/>
		<path fill="#111111" d="M410.923,451.655c0,0-2.567-12.694,16.933-17.027s31-11.041,34.335-13.208
			c3.332-2.167,6.332-0.667,6.332-0.667s5.5,3.833,12.168,3.5c6.665-0.333,16.5-3.846,19-4.006c2.5-0.16,9.832,10.007,21.832,11.84
			s28.782,5.534,32.115,12.201s6.551,14.131,5.051,14.298s-12.327-1.947-21.663-2.17c-26.596-0.636-39.1-7.011-51.218-7.011
			c-6.05,0-18.039,3.411-32.764,1.375c-13.008-1.8-28.646-2.971-32.548-2.5C412.017,449.301,410.923,457.146,410.923,451.655z"/>
	</g>
	<g id="bouche">
		<path fill="#7D5143" d="M420.497,450.339c2.5-0.75,21.059,8.256,45.956,4.651c7.438-1.077,13.735,3.375,16.235,3.263
			s7.417-3.084,17.417-2.084s38.375,1.438,40.625,1.938s-1.92,3.415-6.045,6.312c-3.499,2.457-18.443,9.31-31.33,11.75
			c-12.038,2.28-13.397-0.494-20.288-0.494c-6.892,0-15.224,0.448-25.462-0.089c-12.915-0.678-26.75-11.041-29.25-12.291
			S420.497,450.339,420.497,450.339z"/>
		<path fill="#333838" d="M445.356,465.294c9.835,1.56,23.797,2.705,38.335,2.71c8.672,0.003,17.235-1.555,24.832-1.995
			c20.334-1.18,32.506-7.423,32.506-7.423s-20.732,3.926-38.732,3.926c-4.723,0-12.421,2.315-19.228,2.408
			c-19.186,0.261-35.813-1.747-41.462-3.613c-6.472-2.138-21.109-10.968-21.109-10.968S435.522,463.734,445.356,465.294z"/>
	</g>
	<path fill="#BB8F7D" d="M482.693,197.668c-23.028,1.633-49.405-1.991-60.836,11.846c-5.774,6.991,28.534,30.877,60.781,29.832
		c34.619-1.123,76.135-24.732,66.279-33.204C539.057,197.671,482.693,197.668,482.693,197.668z"/>
	<g id="rides">
		<path fill="#7D5143" d="M405.682,409.835c0,0-12.258,1.72-12.733,16.548c-0.479,14.828,5.57,37.927,5.57,37.927
			s-20.591-31.337-14.456-48.446C390.198,398.755,405.682,409.835,405.682,409.835z"/>
		<path fill="#7D5143" d="M562.601,425.894c0,0,10.209-0.522,11.456,10.563c1.248,11.086,1.179,20.728,1.179,20.728
			s9.56-15.612,3.934-28.069C573.544,416.658,562.601,425.894,562.601,425.894z"/>
		<path fill="#7D5143" d="M391.485,320.288c0,0-17.236-4.012-24.73,3.345c-7.493,7.357-9.278,16.799-9.278,16.799
			s11.916-13.935,17.967-15.158C381.49,324.052,391.485,320.288,391.485,320.288z"/>
		<path fill="#7D5143" d="M576.937,319.616c0,0,17.156-4.341,24.79,2.871s9.599,16.618,9.599,16.618s-12.182-13.704-18.252-14.81
			C587.002,323.189,576.937,319.616,576.937,319.616z"/>
	</g>
	<g id="lunettes_1_">
		<path opacity="0.3" fill="#CEC3BE" enable-background="new    " d="M506.106,281.044c11.727-4.07,37.583-7.958,72.251-3.792
			c34.667,4.166,51.166,9.5,51.666,17.5s3.832,35.5-0.834,37.166c-4.665,1.666-43.832,3.184-69.332,1.092
			c-25.5-2.092-44.334-0.925-49.668-11.758C504.856,310.419,496.912,284.235,506.106,281.044z"/>
		<path opacity="0.3" fill="#CEC3BE" enable-background="new    " d="M462.606,281.044c-11.726-4.07-37.583-7.958-72.25-3.792
			s-51.167,9.5-51.667,17.5s-3.832,35.5,0.834,37.166s43.834,3.184,69.334,1.092c25.5-2.092,44.334-0.925,49.666-11.758
			C463.856,310.419,471.8,284.235,462.606,281.044z"/>
		<path fill="#333838" d="M446.231,290.294c0,0,9.375-0.625,15.25-0.875s11.125-3.625,19.875-3.75s12,2.5,22.375,2.312
			c10.376-0.188,16.27-0.542,16.585,0.797c0.529,2.25,0.498,4.438-0.459,4.5c-3.931,0.256-11.625,0.266-17.25,0.078
			s-13.875-3.314-20.125-3.189s-12.5,3.075-19.625,3.414c-7.125,0.338-13.5,1.088-15.5,1.088S445.106,290.294,446.231,290.294z"/>
		<g>
			<path fill="#333838" d="M652.231,324.607c1.667-5.834,4.625-12.188,0.125-17.521s-8-9.5-16-9.333
				c-8,0.166-21.999,0.499-22.833,1.166s-1.166,5.834,0,6.334s20.332-1.667,24.666,2c4.334,3.666,8.334,3.332,8.167,9.166
				s-1.292,12.021-1.292,12.021L652.231,324.607z"/>
			<path fill="#333838" d="M353.023,311.585c1.167-1.332,1.167-5.678,0.5-6.505c-0.667-0.827-29.001-0.661-31.667,0.839
				c-2.665,1.5-7.5,5.834-7.833,7s-1.167,3.5,0,5.5s3.499,9.75,3.499,9.75l5.75,0.875c0,0-3.916-5.458-3.249-8.291
				c0.667-2.834,1.167-3.667,6.667-4.5C332.19,315.419,353.023,311.585,353.023,311.585z"/>
		</g>
		<path opacity="0.5" fill="#CEC3BE" enable-background="new    " d="M646.189,303.96c3.209,1.668,7.543,7.626,7.459,8.918
			c-0.084,1.291-1.125,3.374-3.375,1.582c-2.25-1.791-11.833-7.124-9.875-7.957c1.958-0.834,2.292-3.375,0.625-4.875
			s-0.979-2.188-0.979-2.188L646.189,303.96z"/>
		<path opacity="0.5" fill="#CEC3BE" enable-background="new    " d="M326.481,314.122c0,0-4.334-1.75-2.834-4.334
			s5.084-2.584,5.084-2.584s-3.25-3-7.415,0.167c-4.169,3.167-6.529,4.864-6.865,5.322c-0.423,0.576-1.117,4.481-0.307,4.616
			C315.143,317.476,326.481,314.122,326.481,314.122z"/>
		
			<linearGradient id="SVGID_1_" gradientUnits="userSpaceOnUse" x1="522.3987" y1="1402.6704" x2="557.3752" y2="1402.6704" gradientTransform="matrix(1 0 0 -1 -0.02 1699.5059)">
			<stop  offset="0" style="stop-color:#FFFFFF;stop-opacity:0"/>
			<stop  offset="1" style="stop-color:#CEC3BE"/>
		</linearGradient>
		<path opacity="0.6" fill="url(#SVGID_1_)" enable-background="new    " d="M553.355,275.502l4.001,42.667l-33.5-1.5l-1.477-39.346
			C522.379,277.323,529.856,275.464,553.355,275.502z"/>
	</g>
</g>
</svg>
